<?xml version="1.0" standalone="no"?>
<!DOCTYPE svg PUBLIC "-//W3C//DTD SVG 20010904//EN"
 "http://www.w3.org/TR/2001/REC-SVG-20010904/DTD/svg10.dtd">
<svg version="1.0" xmlns="http://www.w3.org/2000/svg"
 width="391.000000pt" height="391.000000pt" viewBox="0 0 391.000000 391.000000"
 preserveAspectRatio="xMidYMid meet">
<metadata>
Created by potrace 1.14, written by Peter Selinger 2001-2017
</metadata>
<g transform="translate(0.000000,391.000000) scale(0.100000,-0.100000)"
fill="#000000" stroke="none">
<path d="M1745 3735 c-302 -47 -570 -179 -791 -388 -207 -196 -363 -460 -434
-732 -130 -504 -1 -1047 340 -1429 156 -175 347 -310 558 -394 466 -187 984
-124 1396 171 258 184 460 460 560 767 58 177 71 270 71 490 0 199 -7 259 -47
410 -140 522 -542 928 -1058 1070 -177 48 -419 63 -595 35z m463 -121 c207
-38 442 -144 590 -268 103 -86 187 -170 247 -249 43 -55 135 -207 167 -277
139 -298 167 -683 72 -1007 -14 -48 -27 -95 -29 -104 -7 -36 -129 -257 -183
-332 -325 -454 -885 -666 -1422 -540 -198 46 -415 156 -570 288 -72 61 -164
163 -230 255 -62 88 -188 316 -182 332 1 4 -3 20 -9 35 -24 61 -59 221 -70
322 -55 504 168 1007 581 1311 133 98 337 190 504 226 159 35 366 38 534 8z"/>
<path d="M1775 3600 c-474 -75 -868 -384 -1057 -830 -82 -193 -103 -307 -103
-555 0 -211 8 -268 57 -425 l24 -75 187 -3 188 -2 -24 47 c-148 292 -139 681
21 987 55 105 206 253 347 340 l60 38 -52 -47 c-30 -27 -50 -52 -47 -60 3 -7
-3 -16 -14 -20 -26 -8 -72 -44 -72 -56 0 -5 10 -9 23 -9 17 0 11 -6 -23 -24
-25 -12 -45 -29 -45 -37 0 -8 -15 -24 -32 -37 -38 -26 -62 -64 -45 -70 6 -2
-3 -16 -20 -31 -35 -31 -31 -50 10 -52 25 -1 26 -1 4 -7 -12 -4 -39 -20 -60
-37 l-37 -30 40 -5 40 -5 -32 -18 c-18 -9 -37 -26 -43 -37 -10 -18 -8 -20 22
-20 l33 -1 -30 -16 c-16 -8 -38 -23 -49 -32 -17 -15 -16 -16 25 -21 l44 -6
-40 -19 c-57 -29 -58 -53 -3 -57 l43 -3 -37 -17 c-20 -9 -41 -26 -48 -37 -10
-20 -8 -21 47 -22 l58 0 -49 -25 c-74 -36 -76 -48 -8 -54 l57 -5 -40 -18 c-42
-19 -75 -45 -75 -59 0 -4 35 -8 78 -8 l77 -1 -44 -15 c-51 -18 -91 -42 -91
-55 0 -4 33 -9 73 -11 l72 -3 -42 -14 c-24 -8 -50 -22 -59 -33 -17 -17 -14
-18 77 -19 l94 0 -55 -21 c-30 -11 -66 -30 -78 -42 l-24 -21 54 -5 53 -5 -32
-18 c-43 -23 -43 -47 -1 -47 l31 0 -21 -22 c-11 -13 -24 -35 -27 -50 l-7 -28
275 0 275 0 10 42 c6 23 9 45 6 50 -3 4 -98 8 -211 8 l-205 0 31 38 c116 138
153 218 166 362 6 68 23 180 44 300 10 53 57 252 70 295 23 74 23 112 -1 166
-31 73 -31 139 1 173 33 35 41 33 29 -8 -6 -19 -8 -46 -4 -60 5 -21 12 -26 36
-26 27 0 30 3 30 30 0 33 24 50 43 31 14 -14 50 -14 65 1 13 13 42 -6 42 -29
0 -8 7 -13 18 -11 12 2 16 11 14 30 -4 36 24 88 48 88 26 0 50 -37 50 -77 0
-28 4 -33 24 -33 16 0 27 7 31 20 6 20 45 29 45 10 0 -16 42 -11 62 7 17 15
20 15 28 3 6 -8 10 -27 10 -42 0 -23 5 -28 24 -28 36 0 50 24 43 75 -8 53 0
56 30 12 43 -62 39 -138 -12 -216 -21 -32 -23 -41 -14 -81 5 -25 14 -70 19
-100 5 -30 16 -86 25 -125 21 -92 34 -158 45 -225 5 -30 14 -82 19 -115 6 -33
13 -84 16 -113 8 -76 47 -166 108 -246 28 -38 58 -77 66 -88 13 -17 8 -18
-123 -18 l-136 0 0 -30 c0 -16 -4 -30 -10 -30 -5 0 -6 7 -3 17 4 11 3 14 -5 9
-17 -10 -15 -46 3 -46 8 0 15 -4 15 -10 0 -6 87 -10 240 -10 l240 0 0 24 c0
12 -11 35 -25 50 l-24 26 39 0 c31 0 38 3 33 15 -3 9 -20 23 -37 33 l-31 17
54 5 c52 5 53 5 33 23 -11 10 -47 29 -79 43 l-58 24 93 0 c50 0 92 4 92 9 0 8
-36 28 -91 50 -19 8 -8 10 49 10 39 1 72 5 72 10 0 13 -49 43 -95 57 l-40 13
72 0 c39 1 74 5 77 10 8 12 -22 37 -69 58 l-40 18 58 3 c72 4 71 16 -4 54
l-54 27 58 1 c31 0 57 4 57 8 0 13 -32 39 -65 54 l-30 13 48 3 c43 3 46 5 37
23 -6 10 -27 27 -48 36 l-37 17 38 4 c20 2 37 7 37 11 0 12 -27 34 -59 48
l-26 11 33 1 c43 1 38 18 -13 51 l-38 25 37 3 c20 2 36 6 36 10 0 10 -68 56
-94 64 -18 5 -18 6 6 7 41 2 45 21 10 52 -17 15 -26 29 -20 31 19 7 1 36 -40
65 -21 16 -37 33 -35 40 2 6 -14 22 -37 36 -33 19 -38 26 -24 31 16 6 16 8 0
25 -10 11 -31 25 -47 31 -17 7 -29 20 -29 30 0 10 -21 37 -47 60 l-48 42 60
-37 c87 -55 175 -126 241 -198 57 -62 134 -172 134 -193 0 -6 9 -32 21 -58 11
-26 32 -90 47 -144 24 -87 26 -114 27 -267 0 -156 -3 -178 -28 -267 -28 -100
-55 -172 -83 -220 l-15 -28 181 0 181 0 14 34 c37 88 68 245 81 406 13 169
-34 441 -106 608 -108 255 -285 472 -502 620 -156 106 -279 159 -468 203 -98
23 -367 34 -465 19z m335 -55 c27 -26 30 -35 30 -92 0 -54 -4 -67 -27 -93 -31
-34 -85 -47 -147 -36 l-36 7 0 87 c0 48 3 104 7 126 l6 38 68 -4 c59 -3 72 -8
99 -33z m-319 -37 c45 -72 50 -80 81 -132 l27 -46 -26 -6 c-25 -7 -45 8 -56
39 -2 8 -19 8 -53 2 -44 -9 -49 -13 -54 -40 -4 -24 -11 -31 -34 -33 -26 -3
-28 -1 -22 21 3 14 15 72 26 128 11 57 26 107 33 111 27 17 47 6 78 -44z m491
30 c14 -12 13 -21 -10 -100 -29 -99 -23 -121 31 -116 29 3 32 8 60 91 22 68
33 87 47 87 10 0 21 -4 25 -9 8 -14 -47 -179 -67 -201 -30 -32 -100 -27 -139
8 -38 34 -39 56 -9 157 29 97 28 95 38 95 4 0 15 -6 24 -12z m-706 -146 c24
-57 44 -108 44 -113 0 -5 -11 -11 -24 -15 -18 -4 -40 6 -90 40 -37 25 -69 46
-71 46 -5 0 30 -87 46 -114 8 -14 8 -21 -3 -27 -31 -20 -36 -13 -103 135 -19
44 -34 80 -33 81 38 28 44 26 146 -47 28 -21 52 -37 52 -34 0 2 -13 35 -29 72
-21 50 -26 71 -18 76 26 17 40 -1 83 -100z m1125 -44 c73 -54 85 -78 62 -126
-19 -40 -59 -54 -100 -37 -17 7 -34 18 -37 24 -13 20 -32 12 -57 -23 -24 -33
-25 -34 -46 -18 l-21 17 70 98 c38 53 73 97 77 97 4 0 27 -15 52 -32z m-1552
-193 c72 -84 60 -82 132 -17 23 20 27 21 39 7 15 -18 4 -33 -71 -96 l-46 -39
-81 94 c-75 86 -79 94 -64 110 9 9 19 16 22 16 3 0 34 -34 69 -75z m1786 -7
c66 -52 68 -135 4 -193 -62 -56 -110 -58 -168 -9 -52 44 -60 117 -18 166 56
62 130 77 182 36z m-1769 -170 c6 -10 -14 -38 -27 -38 -5 0 -43 30 -86 67
-115 100 -108 91 -88 113 17 19 20 17 107 -57 49 -42 91 -80 94 -85z m-83 -62
c19 -12 21 -24 8 -45 -9 -14 -22 -8 -131 57 -14 9 1 -12 34 -45 46 -48 57 -65
51 -82 -8 -26 -13 -26 -100 -1 -38 11 -72 20 -75 20 -9 -1 89 -60 99 -60 20 0
33 -28 22 -48 -10 -19 -16 -17 -113 41 -57 33 -105 62 -108 64 -10 9 34 73 47
69 45 -18 125 -37 131 -32 3 4 -18 31 -47 60 l-54 54 22 31 22 30 87 -51 c48
-28 95 -56 105 -62z m2007 13 c7 -11 10 -22 8 -23 -2 -1 -40 -24 -85 -50 -46
-26 -83 -50 -83 -52 0 -2 12 -27 28 -54 23 -43 25 -52 12 -60 -22 -14 -24 -13
-45 28 -11 20 -30 54 -43 75 -13 22 -22 40 -20 42 2 1 39 21 83 45 44 24 89
49 100 57 26 18 32 17 45 -8z m110 -219 c12 -23 3 -28 -133 -80 -74 -28 -90
-31 -98 -19 -20 32 -11 38 166 105 44 17 53 16 65 -6z m-2230 -44 c0 -3 -4
-16 -10 -30 -7 -20 -17 -26 -39 -26 -26 0 -31 -5 -40 -37 -15 -52 -14 -59 10
-75 18 -12 20 -19 13 -41 l-9 -26 -102 77 c-93 70 -102 80 -100 107 l2 30 105
11 c123 13 170 16 170 10z m2234 -86 c33 -12 66 -66 66 -106 0 -30 -32 -84
-50 -84 -5 0 -15 10 -21 22 -9 17 -9 24 5 33 21 16 21 53 -1 77 -20 22 -61 23
-109 3 -33 -13 -35 -17 -32 -52 2 -29 9 -41 30 -51 19 -9 25 -18 21 -32 -8
-29 -40 -25 -74 9 -52 53 -33 147 36 177 36 16 94 18 129 4z m-2514 -145 c0
-37 4 -38 133 -51 65 -7 67 -8 67 -34 0 -27 -1 -27 -47 -23 -27 3 -70 8 -98
13 -60 10 -65 7 -65 -31 0 -30 -23 -50 -40 -33 -9 9 3 175 15 194 12 20 35 -3
35 -35z m2523 -131 l77 -7 0 -88 0 -89 -26 0 -27 0 7 65 7 65 -31 0 -30 0 0
-60 c0 -53 -2 -60 -20 -60 -18 0 -20 7 -20 60 l0 60 -35 0 -35 0 0 -70 c0 -63
-2 -70 -20 -70 -19 0 -20 7 -20 100 l0 100 48 0 c27 0 83 -3 125 -6z"/>
<path d="M1986 3484 c-3 -26 -6 -62 -6 -80 0 -33 1 -34 39 -34 46 0 58 12 67
68 9 57 -14 92 -60 92 -32 0 -34 -2 -40 -46z"/>
<path d="M1736 3468 c-16 -52 -15 -58 15 -58 34 0 34 1 14 40 -17 33 -24 37
-29 18z"/>
<path d="M2646 3295 c-22 -34 -20 -41 14 -55 60 -25 84 21 31 59 l-29 21 -16
-25z"/>
<path d="M2811 3091 c-42 -39 -41 -93 1 -119 26 -16 30 -15 62 2 19 10 42 33
52 52 18 33 18 34 -2 61 -30 41 -72 42 -113 4z"/>
<path d="M800 2600 l-35 -5 30 -23 c25 -20 30 -21 38 -7 15 28 4 40 -33 35z"/>
<path d="M752 1638 c35 -45 48 -46 48 -4 0 35 -1 36 -36 36 l-37 0 25 -32z"/>
<path d="M832 1593 c2 -50 7 -78 16 -81 9 -3 12 17 12 77 0 66 -3 81 -15 81
-13 0 -15 -13 -13 -77z"/>
<path d="M890 1565 c0 -102 9 -145 31 -145 6 0 9 46 7 122 -3 108 -5 123 -20
126 -16 3 -18 -7 -18 -103z"/>
<path d="M960 1511 c0 -129 3 -161 15 -171 13 -11 15 8 15 159 0 145 -2 171
-15 171 -13 0 -15 -24 -15 -159z"/>
<path d="M1032 1463 c2 -154 6 -207 16 -211 9 -3 12 43 12 207 0 182 -2 211
-15 211 -13 0 -15 -27 -13 -207z"/>
<path d="M1090 1426 c0 -204 2 -246 15 -256 13 -11 15 17 15 244 0 221 -2 256
-15 256 -13 0 -15 -34 -15 -244z"/>
<path d="M2261 1643 c-22 -48 -41 -117 -41 -150 l0 -33 92 0 c86 0 90 -1 75
-17 -25 -28 -30 -65 -12 -88 9 -11 13 -14 9 -6 -4 9 -3 12 4 7 20 -12 1 -36
-29 -36 -27 0 -29 -2 -23 -27 3 -16 10 -40 16 -54 13 -35 -20 -101 -62 -126
-16 -9 -32 -25 -36 -35 -4 -15 -22 -17 -132 -20 -70 -2 -176 -2 -236 0 -97 2
-109 5 -113 22 -3 10 -17 22 -33 25 -27 6 -37 21 -58 83 -8 25 -7 41 5 72 9
22 20 40 25 40 4 0 8 5 8 10 0 6 -40 10 -100 10 -55 0 -100 3 -100 6 0 3 7 12
15 20 21 21 19 57 -6 88 l-20 26 142 0 142 0 -8 53 c-4 28 -9 62 -10 75 -1 12
-12 33 -25 47 l-23 25 -289 0 -288 0 0 -273 c0 -203 3 -277 13 -289 19 -25
151 -106 234 -145 106 -49 243 -92 343 -109 111 -18 343 -18 447 0 164 29 378
115 510 205 l52 36 1 293 0 292 -238 0 -239 0 -12 -27z m-834 -201 c-20 -22
-23 -46 -4 -37 6 4 3 -1 -7 -9 -20 -16 -20 -16 0 -17 10 0 13 -3 7 -6 -16 -6
-17 -33 -2 -33 5 0 7 5 4 10 -10 16 1 11 16 -7 10 -11 10 -14 2 -9 -7 4 -13 2
-13 -4 0 -7 -36 -10 -112 -8 l-113 3 -3 54 c-5 83 -8 81 124 81 113 0 116 -1
101 -18z m1273 -52 l0 -70 -109 0 c-78 0 -111 4 -114 13 -4 9 -8 8 -17 -3 -10
-13 -11 -13 -7 0 2 8 14 15 26 14 17 -1 21 4 18 18 -3 10 -1 16 4 12 5 -3 9 0
9 5 0 6 -8 11 -17 12 -17 0 -17 1 0 8 17 6 17 8 -3 34 l-21 27 115 0 116 0 0
-70z m-1240 56 c0 -2 -8 -10 -17 -17 -16 -13 -17 -12 -4 4 13 16 21 21 21 13z
m980 -116 c0 -5 -2 -10 -4 -10 -3 0 -8 5 -11 10 -3 6 -1 10 4 10 6 0 11 -4 11
-10z"/>
<path d="M2787 1663 c-11 -10 -8 -513 2 -513 6 0 17 10 25 22 13 19 16 61 16
260 0 224 -1 238 -18 238 -10 0 -22 -3 -25 -7z"/>
<path d="M2860 1460 c0 -115 3 -210 6 -210 4 0 13 8 20 18 10 13 13 65 14 210
0 185 -1 192 -20 192 -19 0 -20 -7 -20 -210z"/>
<path d="M2930 1499 c0 -151 2 -170 15 -159 12 10 15 42 15 171 0 135 -2 159
-15 159 -13 0 -15 -26 -15 -171z"/>
<path d="M2997 1663 c-9 -8 -9 -228 0 -236 3 -4 12 1 19 11 19 24 19 232 1
232 -8 0 -17 -3 -20 -7z"/>
<path d="M3060 1590 c0 -44 4 -80 9 -80 15 0 21 28 21 96 0 50 -3 64 -15 64
-12 0 -15 -16 -15 -80z"/>
<path d="M3130 1633 l1 -38 24 28 c32 36 31 47 0 47 -22 0 -25 -4 -25 -37z"/>
<path d="M830 1457 c0 -8 7 -20 15 -27 12 -10 15 -10 15 3 0 8 -7 20 -15 27
-12 10 -15 10 -15 -3z"/>
<path d="M3072 1458 c-6 -6 -12 -19 -12 -27 0 -13 2 -13 16 1 9 9 15 21 13 27
-3 9 -8 8 -17 -1z"/>
<path d="M3004 1365 c-20 -30 -10 -47 11 -19 14 18 20 44 10 44 -2 0 -12 -11
-21 -25z"/>
<path d="M900 1361 c10 -21 30 -37 30 -26 0 14 -21 45 -31 45 -6 0 -6 -7 1
-19z"/>
<path d="M2941 1282 c-7 -13 -11 -26 -8 -28 8 -8 29 25 25 38 -3 8 -9 4 -17
-10z"/>
<path d="M970 1272 c6 -13 14 -21 18 -18 3 4 -2 14 -12 24 -18 16 -18 16 -6
-6z"/>
<path d="M345 1636 c-5 -2 -22 -7 -37 -10 -14 -3 -61 -39 -103 -79 -43 -39
-103 -95 -133 -124 l-56 -51 35 -15 c42 -17 68 -49 168 -202 247 -381 598
-684 973 -839 258 -107 483 -151 768 -151 199 0 282 10 480 56 261 62 551 205
759 374 212 174 439 434 556 640 38 67 73 104 115 122 l34 15 -59 56 c-33 30
-90 83 -126 117 -85 81 -101 89 -180 89 -89 1 -120 -23 -178 -140 -154 -310
-425 -584 -718 -727 -498 -242 -1123 -194 -1568 121 -77 55 -278 246 -324 307
-93 126 -144 206 -185 289 -56 113 -90 144 -162 151 -27 3 -53 3 -59 1z m191
-441 c34 -40 44 -59 36 -67 -7 -7 -14 -4 -24 11 -7 11 -17 21 -22 21 -4 0 -34
-22 -66 -50 -32 -27 -60 -50 -64 -50 -20 0 1 32 51 76 56 51 57 52 40 77 -13
20 -14 37 -1 37 1 0 24 -25 50 -55z m2888 -11 c24 -9 19 -24 -8 -24 -29 0 -56
-24 -56 -51 0 -24 24 -24 58 0 62 43 106 31 104 -30 -1 -45 -42 -81 -86 -77
-38 4 -37 22 1 26 34 4 63 29 63 54 0 30 -26 32 -67 4 -21 -14 -47 -26 -58
-26 -51 0 -60 57 -16 101 31 30 39 33 65 23z m-2776 -117 c23 -23 42 -52 42
-64 0 -30 -29 -56 -56 -50 -20 3 -24 -2 -34 -45 -9 -36 -15 -46 -24 -39 -10 8
-10 23 -2 61 8 43 8 53 -7 67 -16 16 -19 15 -47 -12 -22 -21 -33 -26 -41 -18
-8 8 7 29 53 75 34 36 65 66 68 67 3 0 25 -18 48 -42z m2699 -64 c39 -43 58
-72 53 -77 -6 -6 -20 0 -38 17 -15 15 -31 27 -34 27 -8 0 -58 -48 -58 -56 0
-5 12 -21 27 -36 19 -20 24 -31 16 -39 -8 -8 -29 8 -76 58 -41 42 -62 72 -56
77 5 6 19 0 37 -17 l28 -27 32 33 32 32 -25 29 c-22 26 -25 46 -7 46 4 0 35
-30 69 -67z m-2587 -45 c0 -7 -13 -26 -28 -43 -33 -36 -62 -76 -62 -87 0 -13
39 -48 54 -48 14 0 69 52 100 95 10 14 18 17 26 9 7 -7 1 -21 -22 -49 -48 -57
-79 -85 -95 -85 -26 0 -69 28 -82 54 -18 32 -9 54 49 119 42 47 60 58 60 35z
m2414 -54 c27 -26 19 -63 -19 -98 -35 -32 -35 -33 -15 -51 19 -17 28 -55 13
-55 -10 1 -127 150 -122 155 2 2 21 17 43 34 43 34 76 39 100 15z m-2226 -89
c28 -20 52 -42 52 -50 0 -19 -14 -19 -30 0 -7 8 -16 15 -20 15 -5 0 -29 -29
-55 -65 -43 -61 -65 -79 -65 -54 0 6 20 40 44 75 l45 63 -25 20 c-13 10 -24
22 -24 25 0 14 29 4 78 -29z m2104 -72 c31 -50 44 -81 38 -87 -5 -5 -11 -8
-13 -5 -2 2 -18 28 -36 57 -18 28 -34 52 -36 52 -2 0 6 -42 20 -106 4 -18 3
-34 -3 -37 -5 -4 -33 11 -62 33 -30 22 -56 40 -58 40 -4 0 13 -28 45 -75 7
-11 13 -25 13 -32 0 -29 -21 -9 -69 67 -46 72 -49 81 -32 89 14 8 30 0 79 -40
34 -27 62 -46 62 -42 0 4 -7 37 -15 72 -28 117 0 123 67 14z m-2002 -3 c0 -6
-7 -22 -16 -36 -9 -13 -15 -26 -13 -28 9 -9 82 -47 83 -44 1 2 12 19 24 38 16
26 22 31 27 19 7 -19 -75 -169 -92 -169 -18 0 -16 14 8 54 l20 35 -38 18 c-21
9 -41 18 -44 20 -3 2 -14 -12 -25 -32 -16 -30 -44 -48 -44 -29 0 18 87 164 98
164 6 0 12 -5 12 -10z m1790 -92 c37 -78 37 -102 4 -133 -29 -27 -69 -32 -96
-11 -17 13 -68 116 -68 137 0 25 24 -1 53 -56 33 -62 62 -80 93 -55 20 17 18
40 -12 104 -22 48 -25 76 -8 76 3 0 18 -28 34 -62z m-1502 -40 c8 -8 12 -47
12 -110 0 -82 -2 -96 -15 -92 -9 4 -15 19 -15 36 0 23 -6 32 -32 43 -30 12
-35 12 -55 -7 -11 -11 -28 -18 -37 -16 -11 2 4 25 52 80 37 42 69 77 73 77 3
1 10 -4 17 -11z m1321 -68 c34 -87 37 -104 19 -98 -7 3 -24 34 -39 71 -41 98
-43 107 -25 107 9 0 26 -29 45 -80z m-91 -4 c2 -15 -2 -33 -8 -41 -9 -10 -3
-19 25 -40 19 -15 35 -31 35 -36 0 -19 -34 -8 -67 21 -36 32 -49 35 -72 21
-12 -8 -13 -16 -4 -45 11 -36 -1 -62 -16 -37 -12 18 -54 171 -49 176 2 2 29
11 59 19 64 17 92 6 97 -38z m-1123 -47 l-23 -80 25 -10 c13 -5 30 -9 38 -9
16 0 30 -18 21 -27 -6 -6 -96 16 -109 27 -7 6 26 150 39 172 3 4 11 8 18 8 11
0 8 -19 -9 -81z m938 47 c4 -10 -4 -17 -24 -21 -33 -8 -34 -13 -15 -103 8 -39
9 -65 3 -69 -14 -9 -23 12 -37 89 -12 70 -12 70 -41 64 -25 -5 -49 8 -37 19 3
4 76 21 139 34 4 0 9 -5 12 -13z m-690 -18 c35 -18 46 -40 47 -89 0 -36 -6
-52 -26 -74 -22 -24 -31 -27 -71 -22 -62 7 -78 25 -78 93 0 49 4 59 28 80 31
26 66 31 100 12z m167 -85 l49 -78 3 69 c2 44 8 71 16 74 8 2 12 -9 12 -40 0
-78 -12 -148 -25 -148 -7 0 -30 29 -51 65 -21 36 -42 65 -46 65 -4 0 -8 -29
-8 -65 0 -53 -3 -65 -16 -65 -14 0 -16 12 -12 88 4 79 11 112 24 112 2 0 26
-35 54 -77z m267 60 c2 -6 -19 -12 -52 -15 -64 -5 -66 -7 -58 -36 5 -19 12
-22 54 -22 64 0 63 -16 -1 -25 -44 -6 -50 -10 -50 -31 0 -23 3 -24 60 -24 47
0 60 -3 60 -15 0 -12 -15 -15 -75 -15 l-75 0 -2 75 c-1 41 -2 83 -2 93 -1 14
10 18 59 23 71 7 78 6 82 -8z"/>
<path d="M584 1049 c-19 -21 -18 -21 10 -45 51 -44 91 -7 45 42 -27 29 -31 29
-55 3z"/>
<path d="M3092 867 c-22 -23 -22 -25 -5 -46 l18 -22 28 21 c18 15 27 30 25 44
-4 30 -39 32 -66 3z"/>
<path d="M1292 549 l-23 -28 22 -11 c27 -15 31 -10 27 32 l-3 35 -23 -28z"/>
<path d="M2473 549 c-35 -10 -41 -25 -20 -51 10 -14 17 -15 47 -5 27 9 35 17
35 37 0 28 -15 33 -62 19z"/>
<path d="M1610 480 c-39 -39 -14 -130 36 -130 29 0 52 20 64 54 24 74 -48 128
-100 76z"/>
</g>
</svg>
